<svg xmlns="http://www.w3.org/2000/svg" xmlns:xlink="http://www.w3.org/1999/xlink" xmlns:serif="http://www.serif.com/" width="100%" height="100%" viewBox="0 0 512 512" version="1.1" xml:space="preserve" style="fill-rule:evenodd;clip-rule:evenodd;stroke-linejoin:round;stroke-miterlimit:2;"><g transform="matrix(1,0,0,1,-2248,-2248)"><g id="Icons"><path d="M2560.94,2398.41L2549.13,2422.41L2499.32,2422.66C2496.56,2422.67 2494.33,2424.92 2494.34,2427.68C2494.36,2430.44 2496.61,2432.67 2499.37,2432.66L2544.2,2432.44L2530.34,2460.62L2480.52,2460.87C2477.76,2460.89 2475.53,2463.14 2475.54,2465.9C2475.56,2468.66 2477.81,2470.89 2480.57,2470.87L2525.4,2470.65L2510.79,2500.36L2460.97,2500.61C2458.21,2500.62 2455.98,2502.88 2455.99,2505.63C2456.01,2508.39 2458.26,2510.62 2461.02,2510.61L2505.86,2510.39L2488.75,2545.16L2438.93,2545.41C2436.17,2545.42 2433.94,2547.68 2433.96,2550.43C2433.97,2553.19 2436.22,2555.42 2438.98,2555.41L2483.82,2555.19L2464.98,2593.47L2415.16,2593.72C2412.41,2593.74 2410.18,2595.99 2410.19,2598.75C2410.2,2601.51 2412.45,2603.74 2415.21,2603.72L2460.05,2603.5L2442.6,2638.97C2405.26,2642.88 2371.78,2657.28 2340.94,2678.84C2338.99,2680.2 2338.27,2682.76 2339.22,2684.94C2340.18,2687.12 2342.54,2688.33 2344.87,2687.82C2366.79,2683.05 2395.83,2681.87 2418.67,2691.83C2444.27,2702.99 2454.07,2721.84 2463.43,2745.82C2464.25,2747.92 2466.37,2749.21 2468.61,2748.97C2470.86,2748.73 2472.66,2747.02 2473.02,2744.8C2479.3,2705.99 2473.52,2671.58 2451.73,2643.06L2469.14,2607.67L2497.57,2642.69C2499.31,2644.83 2502.46,2645.16 2504.6,2643.42C2506.75,2641.68 2507.07,2638.53 2505.33,2636.39L2474,2597.79L2492.91,2559.36L2521.34,2594.38C2523.08,2596.52 2526.23,2596.85 2528.37,2595.11C2530.51,2593.37 2530.84,2590.22 2529.1,2588.07L2497.77,2549.48L2514.95,2514.56L2543.38,2549.58C2545.12,2551.72 2548.27,2552.05 2550.41,2550.31C2552.55,2548.57 2552.88,2545.42 2551.14,2543.27L2519.81,2504.68L2534.53,2474.74L2564.13,2510.43C2565.89,2512.56 2569.05,2512.85 2571.17,2511.09C2573.3,2509.33 2573.59,2506.17 2571.83,2504.05L2539.37,2464.91L2553.29,2436.61L2581.72,2471.62C2583.46,2473.77 2586.61,2474.1 2588.76,2472.36C2590.9,2470.62 2591.23,2467.46 2589.49,2465.32L2558.15,2426.73L2569.68,2403.31C2596.53,2417.11 2628.19,2422.33 2664.03,2420.07C2666.58,2419.91 2668.59,2417.87 2668.72,2415.32C2671.27,2361.89 2663.67,2310.84 2645.61,2262.26C2644.72,2259.88 2642.19,2258.54 2639.72,2259.14C2587.39,2272.03 2541.81,2293.54 2502.83,2323.42C2500.95,2324.86 2500.34,2327.43 2501.37,2329.56C2516.52,2360.92 2536.55,2383.55 2560.94,2398.41ZM2443.62,2648.91C2460.33,2670.69 2466.72,2696.24 2465.18,2724.7C2456.21,2706.51 2444.48,2692.17 2422.67,2682.66C2405.42,2675.14 2384.93,2673.36 2366.05,2674.71C2390.01,2660.98 2415.68,2651.85 2443.62,2648.91L2443.62,2648.91ZM2512.19,2328.88C2548.3,2301.91 2590.12,2282.22 2637.77,2269.95C2653.77,2314.64 2660.72,2361.46 2658.92,2410.34C2593.18,2413.28 2542.7,2388.92 2512.19,2328.88L2512.19,2328.88ZM2564.27,2310.76C2554.88,2310.76 2547.25,2318.39 2547.25,2327.78C2547.25,2337.16 2554.88,2344.79 2564.27,2344.79C2573.66,2344.79 2581.28,2337.16 2581.28,2327.78C2581.28,2318.39 2573.66,2310.76 2564.27,2310.76ZM2564.27,2320.76C2568.14,2320.76 2571.28,2323.91 2571.28,2327.78C2571.28,2331.64 2568.14,2334.79 2564.27,2334.79C2560.4,2334.79 2557.25,2331.64 2557.25,2327.78C2557.25,2323.91 2560.4,2320.76 2564.27,2320.76Z"/></g></g></svg>